<svg id="e12iGwQRJ7V1" xmlns="http://www.w3.org/2000/svg" xmlns:xlink="http://www.w3.org/1999/xlink" viewBox="0 0 651 606" shape-rendering="geometricPrecision" text-rendering="geometricPrecision"><g><g transform="translate(-88.0347-233.588)"><path d="M569.92,838.8c-7.741-.239-17.24-.69-21.111-1.001-7.29-.587-10.401-1.377-59.841-15.192-21.874-6.112-44.982-11.733-55.508-13.502-4.016-.675-8.379-1.845-11.585-3.107-8.315-3.271-31.349-14.987-51.423-26.154-29.098-16.187-47.712-26.088-63.707-33.886-23.388-11.403-44.404-24.104-67.829-40.994-14.626-10.545-22.294-17.099-34.914-29.843-22.626-22.847-34.994-40.592-45.463-65.23-8.517-20.042-17.482-34.584-29.534-47.905-6.184-6.834-13.91-16.73-18.809-24.088-5.444-8.177-11.85-20.95-14.387-28.688-5.6138-17.121-7.7743-41.921-4.975-57.108c2.9398-15.948,11.495-30.332,32.194-54.129c2.848-3.275,5.304-6.077,5.457-6.226c1.011-.981,7.769-8.905,12.392-14.528c12.428-15.114,19.81-27.477,28.496-47.722c11.979-27.921,24.143-48.011,39.92-65.938c8.266-9.391,17.604634-18.928802,28.707-24.14s11.613-4.936,19.18-5.503c14.713,0,75.547,0,75.547,0c47.394.18,89.094.435,92.667.567s13.438.502,21.923.823c87.45,3.311,141.51,12.599,179.23,30.797c21.409,10.328,44.242,27.929,55.107,42.48c6.09,8.156,9.79,17.636,9.79,25.082c0,12.989,3.786,27.023,9.725,36.046c3.711,5.639,6.4,8.457,12.735,13.347c11.202,8.648,17.478,18.299,21.137,32.506c3.028,11.759,4.364,28.617,3.859,48.717-.616,24.51-1.181,26.451-19.312,66.309l-9.357,20.569.34,56.566c.187,31.111.455,59.854.596,63.873s.393,11.936.56,17.592c.619,20.927,1.085,30.362,3.033,61.297c0,0-.214035,11.337426-1.174,15.552s-3.266,11.784-3.266,11.784c-12.306,21.957-20.148,31.137-35.078,41.063-9.841,6.542-25.396,13.785-35.762,16.652-12.852,3.554-31.587,4.432-69.557,3.259l-.003.003Zm43.304-16.411c20.227-1.953,27.413-3.678,39.696-9.53c16.215-7.724,28.368-18.106,37.222-31.798c2.845-4.399,7.643-14.259,9.208-18.92c1.749-5.21,2.221-13.486,1.35-23.691-2.661-31.205-3.219-49.338-3.901-126.66l-.596-67.662l9.774-21.502c16.743-36.833,17.987-40.679,19.071-58.966.897-15.121-.441-31.433-3.323-40.512-1.619-5.103-4.977-11.639-8.139-15.841-1.516-2.014-6.826-7.738-11.801-12.72-17.281-17.306-22.633-28.688-23.857-50.739-.684-12.307-2.863-18.563-9.242-26.524-10.222-12.758-37.239-31.756-56.822-39.957-16.755-7.016-30.944-8.951-59.806-8.155-22.723.627-47.13.51-57.919-.278-12.459-.911-17.277-1.431-38.162-4.121-24.088-3.102-37.082-4.412-51.153-5.157-22.211-1.176-41.205,1.003-59.153,6.785-28.411,9.152-70.92,33.187-96.759,54.709-9.492,7.906-16.598,12.758-17.445,11.911-1.967-1.967,20.152-20.268,46.693-38.634c21.252-14.706,35.566-22.183,54.584-28.512c35.451-11.798,71.932-14.135,109.97-7.046c18.848,3.513,49.958,5.977,82.819,6.561c18.036.32,27.321-.11,28.533-1.323.727-.727-2.629-2.45-6.914-3.55-13.244-3.399-50.297-7.073-87.928-8.718-3.721-.162-8.958-.411-11.638-.553-5.461-.289-19.047-.722-41.951-1.338-8.485-.229-46.378-.368-84.207-.311c0,0-45.960174-1.8126-57.704,0s-11.706358,2.227785-20.514,6.487-13.618,9.553-20.065,16.075c-15.478,15.658-28.64,37.291-41.618,68.401-5.758,13.801-12.948,28.779-16.242,33.831-1.262,1.935-3.876,5.417-5.808,7.737-1.933,2.32-3.423,4.299-3.312,4.396.222.195,27.876.841,36.424.851c2.952.004,5.222.153,5.043.332s-5.883.913-12.675,1.631c-19.576,2.07-32.77,4.652-39.12,7.657-10.905,5.159-36.052,40.682-40.072,56.606-4.441,17.592-1.118,40.275,8.92,60.898c8.134,16.713,18.068,27.417,30.973,33.38c4.901,2.264,10.98,6.505,10.98,7.66c0,1.039-2.374.841-7.695-.641-2-.558-3.802-.848-4.004-.645-.469.469,1.393,3.274,6.551,9.873c6.829,8.737,15.494,24.534,21.611,39.401c11.364,27.62,36.567,59.106,63.819,79.731c19.506,14.762,57.836,38.507,72.905,45.164c10.12,4.471,39.347,20.011,66.038,35.114c13.529,7.655,36.278,19.167,46.01,23.283c5.037,2.131,8.772,3.269,14.615,4.454c17.295,3.51,33.925,7.917,83.32,22.08c30.174,8.652,31.901,9.071,40.35,9.779c8.335.698,43.05.189,53.064-.779Zm-26.52-52.85c-41.979-.632-72.017-2.065-90.126-4.3-53.399-6.59-118.69-23.783-163.74-43.12-16.624-7.134-47.12-23.612-72.263-39.045-15.876-9.745-28.148-18.288-28.148-19.596c0-2.204,11.648,3.775,36.538,18.757c27.605,16.615,35.139,20.883,50.05,28.349c31.413,15.729,60.194,25.346,112.61,37.628c51.084,11.97,70.117,14.408,130.72,16.746c11.611.448,23.79.934,27.065,1.081c9.023.403,27.97,1.084,29.501,1.059.832-.013,6.048-3.223,13.532-8.327c33.393-22.771,34.758-24.201,36.486-38.218.425-3.451.887-6.389,1.027-6.528.461-.462,1.042,15.873.65,18.279-.504,3.082-2.595,6.919-5.065,9.291-2.523,2.424-11.229,8.648-27.595,19.731l-12.989,8.796-5.594-.088c-3.077-.048-17.774-.271-32.66-.495Zm-54.13-23.587c-16.172-.248-51.029-1.891-73.075-3.445-29.091-2.051-41.516-5.062-71.993-17.448-23.855-9.695-55.98-25.295-87.735-42.605-13.236-7.216-28.16-16.215-30.743-18.538-2.187-1.968-2.203-2.008-.81-2.03c2.531-.04,17.749,7.408,40.259,19.705c21.553,11.774,47.576,24.644,68.522,33.889c2.802,1.237,14.96,6.334,27.017,11.327l21.923,9.078l6.495.358c3.573.197,10.758.595,15.968.885c19.658,1.094,59.189,3.211,70.91,3.797c6.699.335,20.948.62,31.666.633c21.416.027,30.766-.68,40.66-3.076c14.285-3.459,21.972-8.055,35.392-21.159c7.682-7.501,11.432-10.531,13.035-10.531.82,0,.892.25.483,1.676-2.1,7.323-18.442,21.579-33.292,29.042-8.001,4.022-16.819,6.126-31.035,7.407-8.795.793-28.691,1.265-43.648,1.036Zm-57.919-24.506l-3.789-.31l4.063-.417c5.241-.537,56.581-.544,62.406-.008l4.441.409-3.518.35c-4.301.429-58.325.408-63.603-.024Zm2.436-18.224c-1.638-.109-8.043-.452-14.234-.762-40.001-2.004-73.356-8.342-100.24-19.047-27.407-10.913-61.227-34.243-86.907-59.95-19.565-19.585-31.484-35.575-50.863-68.235-10.275-17.315-16.662-27.229-20.2-31.355-2.92-3.405-3.461-5.417-2.482-9.238.968-3.774.005-9.319-2.509-14.46-2.92-5.971-5.372-7.182-14.593-7.203-10.484-.024-17.144-2.536-17.487-6.596-.141-1.679.09-2.147,1.624-3.282.984-.729,4.225-2.244,7.202-3.369c7.219-2.726,14.011-6.251,17.322-8.988c5.019-4.151,7.24-8.274,9.514-17.662c2.638-10.894,7.691-16.778,11.305-13.164.937.937,2.008,3.918,2.93,8.151c2.414,11.087,34.657,29.416,92.398,52.524c31.714,12.692,78.074,29.125,99.154,35.147c25.502,7.285,50.575,12.199,76.459,14.986c11.088,1.194,46.072,1.371,55.212.28c29.25-3.493,48.886-10.079,68.204-22.877c18.624-12.338,25.418-23.355,27.851-45.157.332-2.977,1.118-7.926,1.746-10.997c1.533-7.49,3.532-10.408,6.603-9.637c2.583.648,4.383,4.818,5.672,13.146.841,5.43,2.58,9.726,5,12.351c2.56,2.777,3.804,5.627,5.59,12.812c7.096,28.542,8.171,90.969,2.186,126.95-6.387,38.402-21.69,55.919-57.083,65.341-16.274,4.332-41.384,7.736-70.369,9.539-9.318.58-53.181,1.135-59.002.747Zm24.849-17.676c.312-1.563.799-4.303,1.081-6.09.282-1.786,1.384-8.306,2.447-14.49c2.697-15.673,2.548-19.519-.825-21.264-1.759-.909-6.52-1.646-15.644-2.421-9.343-.793-19.88-2.48-25.891-4.145-4.381-1.214-5.154-1.296-5.825-.625-1.318,1.318-2.3,7.826-2.967,19.669-.895,15.898-.07,28.333,1.982,29.862c1.801,1.342,13.202,2.149,31.986,2.265l13.088.081.568-2.842Zm35.941,1.469c4.029-1.231,5.725-3.183,9.728-11.196c2.773-5.553,11.217-26.186,11.217-27.41c0-.703-10.98-1.435-21.11-1.408-12.523.034-12.846.265-15.654,11.192-1.203,4.684-5.457,28.05-5.457,29.976c0,.189,4.08.223,9.066.075c6.494-.193,9.959-.541,12.209-1.229Zm34.806-4.34c2.711-.689,6.431-1.422,8.267-1.63s3.507-.65,3.715-.983c.207-.333.4-2.554.429-4.936.075-6.186,1.222-9.472,10.634-30.488.577-1.287.973-2.533.882-2.768-.092-.235-2.955.393-6.361,1.396-3.406,1.002-7.779,2.099-9.717,2.436-4.127.719-4.799,1.331-7.341,6.69-1.786,3.765-9.497,28.562-9.497,30.54c0,1.898.571,1.882,8.988-.257Zm-136.22.857c1.582-.847,2.661-4.405,3.235-10.671.634-6.908,1.926-40.689,1.571-41.044-.135-.135-4.858-1.57-10.495-3.19-19.005-5.461-28.641-8.937-50.285-18.139-3.562-1.514-6.507-2.753-6.546-2.753s-.228,3.975-.42,8.833c-.466,11.812-1.657,16.439-7.022,27.265-8.631,17.418-7.325,20.381,12.072,27.39c23.274,8.41,53.262,14.786,57.889,12.309Zm169.89-8.363c1.839-.721,5.096-1.583,7.236-1.915c2.353-.365,5.13-1.263,7.022-2.272c3.169-1.689,9.668-7.143,9.668-8.113c0-.329-1.427-.388-3.779-.157-3.026.298-4.045.198-5.116-.503-2.769-1.814-2.777-6.316-.03-17.152c2.066-8.15,1.734-10.804-1.117-8.936-3.796,2.488-10.275,13.631-15.282,26.285-5.88,14.86-5.801,15.584,1.397,12.763Zm30.669-17.818c3.356-5.728,11.386-26.904,12.416-32.744c1.491-8.46-11.188,17.737-14.41,29.77-1.643,6.136-.691,7.555,1.994,2.974Zm-288.09-10.88c9.584-22.459,12.062-34.47,8.446-40.943-1.814-3.248-3.213-4.096-11.094-6.719-10.234-3.407-19.406-7.616-39.78-18.255l-13.865-7.24-.299,8.414c-.405,11.409-1.727,16.291-6.42,23.719-3.037,4.805.177,8.179,28.496,29.909c7.145,5.482,16.523,12.707,20.84,16.053c4.316,3.346,8.098,6.093,8.402,6.104.305.012,2.678-4.958,5.275-11.043Zm-74.789-51.874c1.011-.676,2.265-2.077,2.785-3.113c1.927-3.834.785-18.533-1.882-24.231-2.486-5.312-8.517-9.74-24.298-17.842-9.636-4.947-13.971-6.852-14.465-6.357-1.412,1.411,23.79,39.838,32.924,50.201c1.246,1.414,2.453,2.571,2.682,2.571.228,0,1.242-.553,2.254-1.229Zm180.5-4.32c-.195-3.052-.583-8.837-.863-12.856s-.556-8.581-.613-10.138-.243-3.048-.413-3.314-1.528-.749-3.016-1.073c-1.489-.323-7.944-1.821-14.344-3.329-43.557-10.257-46.748-10.796-48.169-8.14-.705,1.317-4.16,16.105-4.95,21.184-1.017,6.54.138,9.671,4.361,11.825c2.821,1.439,14.8,5.053,22.235,6.708c10.037,2.234,21.212,3.67,31.937,4.104c5.507.222,10.954.443,12.102.49l2.088.086-.354-5.548Zm61.402,4.601c-.003-1.37-2.518-15.408-3.597-20.082-.692-2.996-1.196-4.096-2.043-4.452-1.381-.582-12.091-2.175-26.836-3.993-6.103-.753-12.01-1.514-13.126-1.692l-2.03-.324v15.745v15.745h23.817c22.323,0,23.817-.059,23.815-.947Zm45.471-.909c7.428-1.084,14.596-2.849,16.655-4.101c2.671-1.625,2.625-2.958-.538-15.456-2.564-10.131-2.983-11.325-3.945-11.241-1.561.136-45.976,7.333-46.152,7.478-.34.28,1.596,18.858,2.105,20.196.68,1.79,2.018,3.325,3.457,3.966c1.603.715,21.858.114,28.418-.843Zm41.409-5.18c.893-.253,2.902-.622,4.465-.822c3.124-.399,4.205-1.419,5.758-5.435c3.572-9.234,4.286-22.316,1.689-30.949-1.489-4.949-3.072-4.917-12.454.246-11.295,6.216-11.995,7.468-9.823,17.582.786,3.661,1.673,9.167,1.97,12.236.736,7.599,1.723,9.17,5.101,8.119.918-.285,2.4-.725,3.293-.977Zm33.943-12.237c.925-.479,2.862-1.974,4.303-3.322c2.404-2.248,2.621-2.66,2.618-4.949-.005-3.404-1.594-9.739-4.631-18.465-3.942-11.329-7.487-18.372-8.657-17.202-1.411,1.412-1.625,15.035-.45,28.719c1.37,15.949,2.129,17.643,6.817,15.219Zm-270.83-2.682c.599-.762,1.369-2.772,1.709-4.465.341-1.694,1.546-7.465,2.678-12.823c2.41-11.405,2.33-12.01-1.946-14.754-2.717-1.744-10.372-4.947-17.527-7.335-13.681-4.566-31.135-10.619-41.68-14.457-13.436-4.889-18.354-5.899-19.381-3.98-.996,1.862-1.14,6.111-.313,9.289c1.586,6.097,7.944,16.181,14.898,23.628c5.079,5.438,7.658,7.155,12.201,8.124c6.879,1.467,12.238,3.556,28.862,11.25c16.197,7.496,18.466,8.107,20.5,5.523Zm-91.069-34.691c.986-2.361,1.078-11.658.228-23.195-.307-4.168-.56-7.99-.563-8.494-.005-.972-.868-1.507-23.01-14.263-32.863-18.932-40.733-21.185-40.467-11.583.108,3.893,3.478,14.382,6.772,21.078c3.776,7.676,10.82,14.028,24.764,22.331c11.516,6.857,29.111,16.065,30.746,16.091.387.006,1.075-.878,1.53-1.964Zm374.88-14.131c-.851-3.314-3.944-9.454-4.922-9.773-.6-.195-.685.203-.412,1.916c1.024,6.399,3.984,12.435,5.404,11.015.425-.426.405-1.306-.07-3.158Zm-487.71,15.549c-1.58-.561-6.002-2.647-9.828-4.635-23.909-12.425-28.176-22.312-29.061-67.341-.37-18.849.209-29.222,1.991-35.653c2.101-7.581,9.345-19.988,15.271-26.156c5.403-5.622,12.301-9.085,21.521-10.804c3.616-.673,36.084-1.013,44.657-.467l4.331.275-7.849.713c-4.317.391-8.823.817-10.014.946-1.191.128-7.281.732-13.532,1.342-28.821,2.809-32.047,4.316-41.664,19.464-4.827,7.603-8.169,14.501-9.574,19.757-1.031,3.858-1.184,6.167-1.404,21.191-.459,31.317,1.835,46.53,8.549,56.693c3.869,5.857,7.185,8.669,17.299,14.671c11.122,6.6,14.615,9.2,14.615,10.878c0,.513-2.618.082-5.308-.873Zm337.31.507c-4.312-.72-8.598-2.53-10.43-4.405-1.946-1.99-3.831-6.649-3.831-9.467c0-1.086.49-2.988,1.09-4.227c1.933-3.992,5.427-4.577,9.541-1.597c5.718,4.142,8.471,4.373,14.458,1.218c6.432-3.389,16.167-14.747,21.538-25.124c2.602-5.027,2.825-8.783.797-13.371-2.318-5.241-5.41-7.916-10.074-8.716-6.269-1.074-13.465-11.845-15.966-23.895-.489-2.354-1.086-8.711-1.328-14.126-.621-13.891-.924-14.429-11.75-20.864-5.897-3.504-9.636-6.905-10.24-9.315-.589-2.343.175-4.001,2.349-5.102c2.504-1.267,4.046-1.575,9.87-1.97c8.645-.586,13.965-2.904,21.31-9.287c13.184-11.456,22.498-15.876,38.774-18.402c9.079-1.409,31.529-1.41,37.533-.002c7.424,1.741,11.36,3.945,17.661,9.889c4.382,4.134,6.598,7.5,6.673,10.137.225,7.948-10.307,11.808-41.568,15.231-34.803,3.811-53.656,10.016-55.965,18.42-.735,2.672-.75,7.599-.045,14.344c1.227,11.747,2.931,14.528,13.609,22.214c12.528,9.018,21.134,16.408,30.431,26.131c9.679,10.123,13.368,12.965,18.066,13.92c4.455.905,9.29,3.357,13.84,7.017c3.465,2.787,6.858,6.62,6.858,7.746c0,1.19-3.634.015-8.14-2.631-6.728-3.951-19.407-10.153-23.644-11.567-5.93-1.978-7.435-1.488-10.747,3.502-2.534,3.817-3.898,4.21-6.726,1.938-3.308-2.659-4.665-2.312-9.937,2.538-3.002,2.761-7.294,7.376-11.944,12.843-4.881,5.737-12.323,12.938-14.983,14.497-4.66,2.73-10.508,3.58-17.078,2.482Zm84.985-151.86c2.278-.193,4.141-.537,4.141-.764c0-.664-4.211-1.195-9.473-1.195-5.643.001-10.555.582-10.555,1.25c0,.784,9.822,1.222,15.887.709Zm-184.05,134.89c-3.11-1.778-7.041-4.831-8.328-6.467-2.037-2.59-4.257-8.215-5.044-12.785-1.4-8.13-.14-18.914,2.908-24.889c3.585-7.027,10.487-10.681,21.23-11.237c13.897-.72,21.133,3.841,16.773,10.573-1.198,1.851-4.089,3.069-9.845,4.148-14.175,2.658-17.322,4.86-17.322,12.121c0,4.539,1.643,8.618,4.914,12.197c3.13,3.424,4.292,5.899,4.276,9.105-.013,2.476-1.401,6.089-2.925,7.613-1.3,1.3-3.968,1.148-6.638-.379Zm-242.45-4.03c-1.831-1.131-4.802-4.626-6.574-7.734-3.987-6.991-7.181-23.655-7.177-37.439.005-17.198,4.488-31.83,13.379-43.671c3.016-4.016,9.384-10.247,13.302-13.014c11.702-8.268,37.117-11.117,54.484-6.11c2.931.845,7.792,3.052,13.532,6.144c15.752,8.483,30.842,14.644,42.399,17.312c9.907,2.286,18.548.979,30.553-4.621c7.939-3.704,13.625-7.742,20.044-14.231c6.493-6.565,8.336-7.589,11.922-6.624c3.192.86,4.188,2.279,4.145,5.91-.111,9.526-15.741,25.253-31.283,31.476-16.774,6.717-35.955,6.273-58.168-1.346-12.468-4.277-30.96-13.034-34.986-16.57-2.408-2.115-4.622-2.968-9.68-3.73-7.261-1.094-18.634.161-26.886,2.968-7.256,2.468-10.845,5.156-15.809,11.842-4.148,5.586-7.074,10.647-9.148,15.827-5.073,12.67-5.466,17.798-2.356,30.791c3.912,16.349,4.693,20.529,4.773,25.534.068,4.27-.08,5.178-1.058,6.496-1.398,1.884-3.209,2.149-5.409.79Zm516.72-1.328c0-1.688,6.025-5.881,18.404-12.808c15.904-8.899,17.208-10.624,20.863-27.616c2.443-11.356,3.178-18.353,2.758-26.253-.886-16.651-5.232-25.784-15.613-32.816-3.251-2.202-7.521-5.928-12.068-10.533-6.894-6.98-9.453-8.857-13.262-9.729-1.042-.238-11.76-.451-23.817-.472-20.798-.037-22.034-.094-24.088-1.121-6.19-3.095.216-6.998,8.119-4.947c4.974,1.291,14.024,1.969,26.289,1.969c17.763.001,19.884.724,30.164,10.285c7.113,6.616,12.956,11.487,15.906,13.262c3.736,2.248,11.638,20.678,12.92,30.134c1.164,8.583-2.469,32.206-7.145,46.459-1.381,4.208-2.095,5.536-3.929,7.308-5.197,5.021-26.444,16.014-33.517,17.34-1.589.298-1.985.206-1.985-.464Zm-251.43-.756c-3.298-.804-5.242-4.999-5.196-11.218.038-5.169.253-5.985,2.115-8c2.539-2.75,5.752-3.401,16.614-3.369c11.098.033,17.032,1.066,23.647,4.114c7.489,3.453,9.243,8.557,3.74,10.887-.803.339-7.316.758-15.208.977-8.166.226-14.679.652-15.948,1.041-1.185.364-3.001,1.574-4.06,2.704-1.659,1.772-3.913,3.388-4.45,3.19-.094-.034-.658-.181-1.254-.326Zm258.24-23.365c-.646-1.044,1.745-4.708,6.556-10.046c8.347-9.262,9.113-10.829,9.009-18.434-.078-5.656-1.407-16.627-2.942-24.287-1.838-9.17-4.052-12.135-12.625-16.909-5.773-3.215-10.398-7.188-9.894-8.5.193-.504.808-.915,1.366-.915c1.606,0,7.021,2.001,11.772,4.35c7.532,3.725,10.657,7.758,12.673,16.358c2.426,10.35,4.066,33.847,2.767,39.65-.802,3.584-3.794,8.296-7.969,12.55-4.743,4.833-9.759,7.728-10.713,6.184Zm-352.63-7.103c-2.925-.624-3.307-.969-2.073-1.872c1.66-1.214,8.823-1.964,23.393-2.45c18.953-.632,25.706-2.066,28.619-6.078c1.049-1.445,1.05-1.527.077-4.391-1.183-3.48-.873-4.695,1.194-4.684c1.808.01,2.495.421,3.319,1.986c1.633,3.102-.281,9.731-3.7,12.82-2.459,2.221-4.029,2.707-12.457,3.856-7.323.998-34.778,1.58-38.372.813Zm268.15-21.108c-7.957-1.461-10.997-2.669-14.657-5.82-3.91-3.366-6.347-9.618-5.156-13.228c1.892-5.733,5.466-5.701,16.988.154c8.292,4.213,9.886,3.938,19.063-3.296c16.294-12.843,19.446-14.304,32.315-14.973c14.643-.762,28.909,3.209,35.395,9.853c4.363,4.468,5.131,10.263,1.828,13.799-2.752,2.946-7.623,2.113-13.865-2.372-10.335-7.425-24.733-8.129-34.113-1.669-3.448,2.375-5.922,5.677-7.992,10.666-1.853,4.466-3.742,6.589-6.561,7.371-3.391.942-17.03.658-23.245-.484Zm-188.92-38.62c-7.121-4.136-21.203-11.941-24.9-13.799-23.324-11.724-49.226-14.393-77.429-7.98-14.809,3.367-24.493,3.004-29.903-1.123-5.155-3.931-4.284-12.447,2.283-22.325c11.265-16.945,34.951-27.355,67.971-29.873c22.439-1.711,40.976,2.211,57.842,12.241c10.504,6.246,25.606,18.935,29.478,24.769c3.94,5.937,4.515,12.259,1.649,18.157-2.445,5.033-14.85,16.576-21.355,19.872-3.18,1.612-2.97,1.609-5.635.061Zm8.803-23.25c1.344-1.344,1.932-2.42,1.932-3.533c0-3.19-7.25-11.071-14.939-16.238-12.601-8.469-33.64-17.953-35.563-16.031-.641.642-3.809,15.191-3.809,17.495c0,2.672,1.48,3.869,5.421,4.387c5.859.771,10.898,2.745,25.481,9.984c11.003,5.463,13.37,6.31,16.92,6.056c2.155-.154,2.968-.532,4.556-2.12Zm-117.1-13.95c5.762-1.799,9.399-4.904,7.884-6.73-.891-1.073-5.556-1.063-8.728.018-4.12,1.403-8.8,6.183-7.738,7.901.444.719,4.088.214,8.582-1.189Zm-44.259,20.789c-.199-.198-.361-1.055-.361-1.902c0-2.337,2.694-3.845,6.192-3.466c1.471.159,3.016.631,3.433,1.049.652.651.503.955-1.052,2.141-2.883,2.199-7.079,3.312-8.212,2.178Zm-12.225-10.784c-3.29-.884-5.681-2.216-7.548-4.203-2.543-2.707-.445-4.318,7.774-5.97c5.976-1.201,22.019-3.667,22.263-3.422.11.11-3.758,1.956-8.596,4.101-8.655,3.839-11.815,5.621-11.148,6.287.186.186,3.03,1,6.32,1.809s6.159,1.648,6.375,1.864c.74.741-12.433.343-15.441-.466Zm269.4-28.161c-.515-23.617,2.164-36.312,8.337-39.505c1.738-.899,3.148-.491,3.148.911c0,.558-1.105,3.15-2.456,5.761-3.202,6.187-5.164,14.114-7.003,28.284-.791,6.098-1.536,11.185-1.656,11.305s-.287-2.92-.37-6.757Zm-243.99-16.37c0-3.422,10.867-15.685,23.979-27.062c11.468-9.95,19.458-14.473,34.112-19.311c12.117-4,22.605-5.964,37.448-7.013c2.381-.168,6.096-.444,8.254-.613c6.853-.537,34.833-.327,40.558.305c8.743.965,12.842,2.618,9.01,3.634-1.975.523-13.522.547-28.863.06-22.082-.702-42.214,1.583-60.622,6.882-18.328,5.275-29.461,12.52-49.261,32.055-7.583,7.481-12.964,12.062-14.169,12.062-.245,0-.446-.45-.446-.999Zm156.24-6.521c-.686-11.734-3.231-18.824-10.869-30.274-4.066-6.094-5.052-8.179-4.382-9.264.616-.997,4.275,1.339,7.42,4.737c3.596,3.884,6.917,10.457,8.512,16.848c1.298,5.2,1.416,11.211.39,19.79l-.648,5.413-.423-7.249Zm192.38,4.678c-.578-1.265-1.784-4.746-2.68-7.734-2.774-9.254-6.915-14.225-18.079-21.703-7.805-5.228-14.568-8.572-19.602-9.692-3.496-.778-5.696-.888-12.141-.608-15.225.663-37.184,3.511-48.636,6.309-7.404,1.808-9.42,1.98-10.33.884-2.579-3.108,8.09-6.352,29.444-8.953c25.731-3.135,37.677-3.689,44.116-2.047c4.302,1.097,14.233,6.038,20.727,10.313c9.004,5.927,15.775,13.587,18.366,20.78c1.748,4.853,2.019,14.752.404,14.752-.296,0-1.011-1.036-1.589-2.301Zm-367.32-4.009c.816-3.281,12.499-17.417,19.917-24.098c21.852-19.683,50.921-35.245,77.095-41.273c16.026-3.691,30.354-5.232,50.793-5.465c21.74-.247,31.301.607,49.529,4.426c20.182,4.229,32.727,5.33,60.625,5.32c23.601-.008,30.754-.409,54.942-3.079c25.141-2.776,39.43-2.357,45.994,1.349c2.717,1.534,4.617,4.314,4.617,6.757c0,1.834-.045,1.873-1.76,1.531-.967-.192-3.389-1.434-5.382-2.758s-5.159-2.93-7.037-3.569c-3.151-1.072-4.143-1.137-12.887-.848-5.21.173-12.396.688-15.968,1.145-13.228,1.691-31.31,3.038-47.324,3.525-9.059.275-16.632.401-16.83.279-.197-.123-4.478-.264-9.512-.315-17.122-.172-35.562-2.146-53.269-5.702-28.437-5.711-55.459-5.943-82.277-.707-37.878,7.395-69.531,23.765-92.216,47.691-7.116,7.505-15.528,15.275-17.874,16.51l-1.56.821.384-1.54Z" transform="translate(0-.328)" fill="#a00"/></g></g></svg>
